<svg width="114" height="114" viewBox="0 0 114 114" fill="none" xmlns="http://www.w3.org/2000/svg">
<g id="teenyicons:git-outline">
<path id="Vector" d="M48.2054 3.83189L3.51744 48.5119L9.17344 54.1679L53.8534 9.48789L48.2054 3.83189ZM3.51744 65.4799L48.1974 110.168L53.8534 104.504L9.17344 59.8239L3.51744 65.4799ZM65.1734 110.16L109.853 65.4879L104.197 59.8239L59.5174 104.504L65.1734 110.16ZM109.853 48.5039L65.1734 3.83189L59.5174 9.48789L104.197 54.1679L109.853 48.5039ZM109.853 65.4879C110.969 64.3735 111.853 63.0423 112.457 61.5859C113.06 60.1295 113.371 58.5684 113.371 56.9919C113.371 55.4154 113.06 53.8543 112.457 52.3979C111.853 50.9415 110.969 49.6183 109.853 48.5039L104.197 54.1599C104.57 54.5315 104.865 54.9729 105.067 55.4588C105.269 55.9448 105.373 56.4658 105.373 56.9919C105.373 57.518 105.269 58.039 105.067 58.525C104.865 59.0109 104.57 59.4523 104.197 59.8239L109.853 65.4879ZM48.1974 110.168C49.3118 111.283 50.6431 112.168 52.0995 112.771C53.5559 113.375 55.1169 113.685 56.6934 113.685C58.2699 113.685 59.831 113.375 61.2874 112.771C62.7438 112.168 64.067 111.283 65.1814 110.168L59.5174 104.512C59.1459 104.884 58.7125 105.18 58.2265 105.382C57.7405 105.583 57.2196 105.687 56.6934 105.687C56.1673 105.687 55.6463 105.583 55.1604 105.382C54.6744 105.18 54.233 104.884 53.8614 104.512L48.1974 110.168ZM3.51744 48.5119C2.40232 49.6263 1.51772 50.9575 0.914182 52.4139C0.310644 53.8703 0 55.4314 0 57.0079C0 58.5844 0.310644 60.1455 0.914182 61.6019C1.51772 63.0583 2.40232 64.3815 3.51744 65.4959L9.17344 59.8319C8.80093 59.4603 8.50539 59.0269 8.30374 58.541C8.10209 58.055 7.99829 57.534 7.99829 57.0079C7.99829 56.4818 8.10209 55.9608 8.30374 55.4748C8.50539 54.9889 8.80093 54.5395 9.17344 54.1679L3.51744 48.5119ZM53.8534 9.49589C54.225 9.12339 54.6664 8.82784 55.1524 8.62619C55.6383 8.42454 56.1593 8.32074 56.6854 8.32074C57.2116 8.32074 57.7325 8.42454 58.2185 8.62619C58.7045 8.82784 59.1459 9.12339 59.5174 9.49589L65.1734 3.83189C64.059 2.71677 62.7278 1.83217 61.2714 1.22863C59.815 0.625097 58.2539 0.314453 56.6774 0.314453C55.1009 0.314453 53.5399 0.625097 52.0835 1.22863C50.627 1.83217 49.3038 2.71677 48.1894 3.83189L53.8534 9.49589ZM37.8534 19.8399L45.8534 27.8399L51.5174 22.1759L43.5174 14.1759L37.8534 19.8399ZM56.6854 36.9999C55.6246 36.9999 54.6072 36.5785 53.857 35.8283C53.1069 35.0782 52.6854 34.0608 52.6854 32.9999H44.6854C44.6854 36.1825 45.9497 39.2347 48.2002 41.4852C50.4506 43.7356 53.5028 44.9999 56.6854 44.9999V36.9999ZM60.6854 32.9999C60.6854 34.0608 60.264 35.0782 59.5139 35.8283C58.7637 36.5785 57.7463 36.9999 56.6854 36.9999V44.9999C59.868 44.9999 62.9203 43.7356 65.1707 41.4852C67.4212 39.2347 68.6854 36.1825 68.6854 32.9999H60.6854ZM56.6854 28.9999C57.7463 28.9999 58.7637 29.4213 59.5139 30.1715C60.264 30.9216 60.6854 31.939 60.6854 32.9999H68.6854C68.6854 29.8173 67.4212 26.765 65.1707 24.5146C62.9203 22.2642 59.868 20.9999 56.6854 20.9999V28.9999ZM56.6854 20.9999C53.5028 20.9999 50.4506 22.2642 48.2002 24.5146C45.9497 26.765 44.6854 29.8173 44.6854 32.9999H52.6854C52.6854 31.939 53.1069 30.9216 53.857 30.1715C54.6072 29.4213 55.6246 28.9999 56.6854 28.9999V20.9999ZM61.8534 43.8319L73.8534 55.8319L79.5094 50.1679L67.5094 38.1679L61.8534 43.8319ZM80.6854 60.9999C79.6246 60.9999 78.6072 60.5785 77.857 59.8283C77.1069 59.0782 76.6854 58.0608 76.6854 56.9999H68.6854C68.6854 60.1825 69.9497 63.2347 72.2002 65.4852C74.4506 67.7356 77.5028 68.9999 80.6854 68.9999V60.9999ZM84.6854 56.9999C84.6854 58.0608 84.264 59.0782 83.5139 59.8283C82.7637 60.5785 81.7463 60.9999 80.6854 60.9999V68.9999C83.868 68.9999 86.9203 67.7356 89.1707 65.4852C91.4212 63.2347 92.6854 60.1825 92.6854 56.9999H84.6854ZM80.6854 52.9999C81.7463 52.9999 82.7637 53.4213 83.5139 54.1715C84.264 54.9216 84.6854 55.939 84.6854 56.9999H92.6854C92.6854 53.8173 91.4212 50.765 89.1707 48.5146C86.9203 46.2642 83.868 44.9999 80.6854 44.9999V52.9999ZM80.6854 44.9999C77.5028 44.9999 74.4506 46.2642 72.2002 48.5146C69.9497 50.765 68.6854 53.8173 68.6854 56.9999H76.6854C76.6854 55.939 77.1069 54.9216 77.857 54.1715C78.6072 53.4213 79.6246 52.9999 80.6854 52.9999V44.9999ZM52.6854 40.9999V72.9999H60.6854V40.9999H52.6854ZM56.6854 84.9999C55.6246 84.9999 54.6072 84.5785 53.857 83.8283C53.1069 83.0782 52.6854 82.0608 52.6854 80.9999H44.6854C44.6854 84.1825 45.9497 87.2347 48.2002 89.4852C50.4506 91.7356 53.5028 92.9999 56.6854 92.9999V84.9999ZM60.6854 80.9999C60.6854 82.0608 60.264 83.0782 59.5139 83.8283C58.7637 84.5785 57.7463 84.9999 56.6854 84.9999V92.9999C59.868 92.9999 62.9203 91.7356 65.1707 89.4852C67.4212 87.2347 68.6854 84.1825 68.6854 80.9999H60.6854ZM56.6854 76.9999C57.7463 76.9999 58.7637 77.4213 59.5139 78.1715C60.264 78.9216 60.6854 79.939 60.6854 80.9999H68.6854C68.6854 77.8173 67.4212 74.765 65.1707 72.5146C62.9203 70.2642 59.868 68.9999 56.6854 68.9999V76.9999ZM56.6854 68.9999C53.5028 68.9999 50.4506 70.2642 48.2002 72.5146C45.9497 74.765 44.6854 77.8173 44.6854 80.9999H52.6854C52.6854 79.939 53.1069 78.9216 53.857 78.1715C54.6072 77.4213 55.6246 76.9999 56.6854 76.9999V68.9999Z" fill="#636262"/>
</g>
</svg>
