<svg width="106" height="106" viewBox="0 0 106 106" fill="none" xmlns="http://www.w3.org/2000/svg">
<g id="ant-design:ant-design-outlined">
<path id="Vector" d="M76.9413 29.7733C79.1679 27.5585 79.1679 23.9491 76.9413 21.7343L68.7499 13.5429L68.7616 13.5546C66.5937 11.3866 62.8671 7.66004 57.5937 2.39832C55.1093 -0.0274588 51.0897 -0.00402126 48.6288 2.45692L2.48037 48.5702C1.88994 49.1566 1.42135 49.8541 1.10158 50.6224C0.781811 51.3906 0.617188 52.2146 0.617188 53.0468C0.617188 53.8789 0.781811 54.7029 1.10158 55.4712C1.42135 56.2395 1.88994 56.9369 2.48037 57.5233L48.6171 103.625C49.8066 104.812 51.4187 105.479 53.0995 105.479C54.7803 105.479 56.3924 104.812 57.5819 103.625L76.9296 84.289C79.1562 82.0741 79.1562 78.4647 76.9296 76.2499C75.8602 75.1858 74.4129 74.5884 72.9042 74.5884C71.3955 74.5884 69.9483 75.1858 68.8788 76.2499L54.2304 90.9218C53.621 91.5311 52.6718 91.5311 52.0624 90.9218L15.2069 54.1015C14.5976 53.4921 14.5976 52.5429 15.2069 51.9335L52.0507 15.1132C52.0976 15.0663 52.1562 15.0311 52.203 14.9843C52.8124 14.5038 53.6562 14.5507 54.2187 15.1132L68.8905 29.7733C71.1171 31.9999 74.7265 31.9999 76.9413 29.7733ZM40.8827 53.2811C40.8827 56.5818 42.1952 59.7474 44.5313 62.0813C46.8674 64.4153 50.0359 65.7264 53.3398 65.7264C56.6436 65.7264 59.8121 64.4153 62.1482 62.0813C64.4843 59.7474 65.7968 56.5818 65.7968 53.2811C65.7968 49.9804 64.4843 46.8149 62.1482 44.481C59.8121 42.147 56.6436 40.8358 53.3398 40.8358C50.0359 40.8358 46.8674 42.147 44.5313 44.481C42.1952 46.8149 40.8827 49.9804 40.8827 53.2811ZM103.719 48.7577L89.3163 34.4257C87.0898 32.2108 83.4804 32.2108 81.2655 34.4374C80.7362 34.9644 80.3161 35.5908 80.0295 36.2806C79.7429 36.9703 79.5953 37.71 79.5953 38.4569C79.5953 39.2039 79.7429 39.9435 80.0295 40.6333C80.3161 41.3231 80.7362 41.9494 81.2655 42.4765L90.9921 52.1913C91.6015 52.8007 91.6015 53.7499 90.9921 54.3593L81.4062 63.9335C80.8768 64.4605 80.4568 65.0869 80.1701 65.7767C79.8835 66.4664 79.736 67.206 79.736 67.953C79.736 68.7 79.8835 69.4396 80.1701 70.1294C80.4568 70.8192 80.8768 71.4455 81.4062 71.9725C82.4756 73.0367 83.9229 73.634 85.4315 73.634C86.9402 73.634 88.3875 73.0367 89.4569 71.9725L103.73 57.7108C104.319 57.1229 104.785 56.4246 105.103 55.656C105.421 54.8874 105.584 54.0636 105.583 53.2318C105.582 52.4001 105.417 51.5767 105.097 50.8089C104.777 50.0411 104.309 49.3441 103.719 48.7577Z" fill="#636262"/>
</g>
</svg>
