<svg width="110" height="90" viewBox="0 0 110 90" fill="none" xmlns="http://www.w3.org/2000/svg">
<g id="ri:bootstrap-line">
<path id="Vector" d="M0 40V50C0 50 10 50 10 70V75C10 78.9782 11.5804 82.7936 14.3934 85.6066C17.2064 88.4196 21.0218 90 25 90H85C88.9782 90 92.7936 88.4196 95.6066 85.6066C98.4196 82.7936 100 78.9782 100 75V70C100 50 110 50 110 50V40C110 40 100 40 100 20V15C100 11.0218 98.4196 7.20644 95.6066 4.3934C92.7936 1.58035 88.9782 0 85 0H25C21.0218 0 17.2064 1.58035 14.3934 4.3934C11.5804 7.20644 10 11.0218 10 15V20C10 40 0 40 0 40ZM98.37 45C98.2196 45.1395 98.0729 45.2829 97.93 45.43C92.89 50.465 90 58.46 90 70V75C90 76.3261 89.4732 77.5979 88.5355 78.5355C87.5979 79.4732 86.3261 80 85 80H25C23.6739 80 22.4021 79.4732 21.4645 78.5355C20.5268 77.5979 20 76.3261 20 75V70C20 58.46 17.11 50.465 12.07 45.43C11.9256 45.2844 11.7789 45.141 11.63 45C11.7804 44.8605 11.9271 44.7171 12.07 44.57C17.11 39.535 20 31.54 20 20V15C20 13.6739 20.5268 12.4021 21.4645 11.4645C22.4021 10.5268 23.6739 10 25 10H85C86.3261 10 87.5979 10.5268 88.5355 11.4645C89.4732 12.4021 90 13.6739 90 15V20C90 31.54 92.89 39.535 97.93 44.57L98.37 45ZM37.5 20V70H62.5C65.7456 70.0014 68.9041 68.95 71.5014 67.0037C74.0987 65.0574 75.9946 62.3211 76.9046 59.2057C77.8146 56.0903 77.6896 52.7637 76.5483 49.7254C75.407 46.6871 73.3111 44.1009 70.575 42.355C71.8592 40.0724 72.5234 37.4933 72.5014 34.8743C72.4795 32.2554 71.7722 29.6878 70.4499 27.427C69.1277 25.1662 67.2365 23.2911 64.9645 21.9881C62.6926 20.6851 60.1191 19.9997 57.5 20H37.5ZM47.5 40V30H57.5C58.8261 30 60.0979 30.5268 61.0355 31.4645C61.9732 32.4021 62.5 33.6739 62.5 35C62.5 36.3261 61.9732 37.5979 61.0355 38.5355C60.0979 39.4732 58.8261 40 57.5 40H47.5ZM47.5 50H62.5C63.8261 50 65.0979 50.5268 66.0355 51.4645C66.9732 52.4021 67.5 53.6739 67.5 55C67.5 56.3261 66.9732 57.5979 66.0355 58.5355C65.0979 59.4732 63.8261 60 62.5 60H47.5V50Z" fill="#636262"/>
</g>
</svg>
