<svg width="73" height="105" viewBox="0 0 73 105" fill="none" xmlns="http://www.w3.org/2000/svg">
<g id="basil:figma-outline">
<path id="Vector" fill-rule="evenodd" clip-rule="evenodd" d="M40.0008 68.115C43.4646 70.8933 47.7546 72.4395 52.1944 72.5099C56.6341 72.5803 60.971 71.1708 64.5212 68.5038C68.0713 65.8368 70.6327 62.0639 71.8014 57.7801C72.9701 53.4963 72.6796 48.9454 70.9758 44.845C69.5511 41.4014 67.1924 38.4244 64.1658 36.25C66.7476 34.3994 68.8509 31.9599 70.3014 29.1338C71.7518 26.3077 72.5075 23.1765 72.5058 20C72.5058 14.6957 70.3986 9.60859 66.6479 5.85787C62.8972 2.10714 57.8101 8.34947e-07 52.5058 8.34947e-07H20.0058C15.7715 -0.0012223 11.6462 1.34144 8.22374 3.83461C4.80133 6.32779 2.2585 9.84283 0.961452 13.8735C-0.335597 17.9042 -0.319934 22.2426 1.00619 26.2638C2.33231 30.285 4.90045 33.7816 8.34078 36.25C5.76002 38.1017 3.6574 40.5414 2.20696 43.3672C0.75653 46.193 5.26238e-07 49.3237 5.26238e-07 52.5C5.26238e-07 55.6763 0.75653 58.807 2.20696 61.6328C3.6574 64.4586 5.76002 66.8983 8.34078 68.75C5.55646 70.7479 3.33223 73.4278 1.88143 76.5325C0.43063 79.6372 -0.198058 83.0626 0.0556689 86.4802C0.309396 89.8978 1.43703 93.1928 3.33039 96.0493C5.22376 98.9057 7.81935 101.228 10.8682 102.793C13.917 104.357 17.3168 105.113 20.7414 104.986C24.166 104.859 27.5006 103.854 30.4252 102.068C33.3499 100.282 35.7665 97.7739 37.4432 94.7852C39.12 91.7964 40.0007 88.427 40.0008 85V68.115ZM20.0008 7.5C16.6856 7.5 13.5061 8.81696 11.1619 11.1612C8.81774 13.5054 7.50078 16.6848 7.50078 20C7.50078 23.3152 8.81774 26.4946 11.1619 28.8388C13.5061 31.183 16.6856 32.5 20.0008 32.5H32.5008V7.5H20.0008ZM32.5008 72.5H20.0008C17.5285 72.5 15.1118 73.2331 13.0561 74.6066C11.0005 75.9801 9.39838 77.9324 8.45228 80.2165C7.50619 82.5005 7.25865 85.0139 7.74096 87.4386C8.22328 89.8634 9.41379 92.0907 11.1619 93.8388C12.9101 95.587 15.1374 96.7775 17.5621 97.2598C19.9869 97.7421 22.5002 97.4946 24.7843 96.5485C27.0684 95.6024 29.0206 94.0002 30.3941 91.9446C31.7677 89.889 32.5008 87.4723 32.5008 85V72.5ZM20.0008 40C16.6856 40 13.5061 41.317 11.1619 43.6612C8.81774 46.0054 7.50078 49.1848 7.50078 52.5C7.50078 55.8152 8.81774 58.9946 11.1619 61.3388C13.5061 63.683 16.6856 65 20.0008 65H32.5008V40H20.0008ZM40.0008 52.5C40.0008 55.8159 41.318 58.9959 43.6627 61.3406C46.0074 63.6853 49.1874 65.0025 52.5033 65.0025C55.8191 65.0025 58.9992 63.6853 61.3439 61.3406C63.6886 58.9959 65.0058 55.8159 65.0058 52.5C65.0058 49.1841 63.6886 46.0041 61.3439 43.6594C58.9992 41.3147 55.8191 39.9975 52.5033 39.9975C49.1874 39.9975 46.0074 41.3147 43.6627 43.6594C41.318 46.0041 40.0008 49.1841 40.0008 52.5ZM52.5008 32.5C55.816 32.5 58.9954 31.183 61.3396 28.8388C63.6838 26.4946 65.0008 23.3152 65.0008 20C65.0008 16.6848 63.6838 13.5054 61.3396 11.1612C58.9954 8.81696 55.816 7.5 52.5008 7.5H40.0008V32.5H52.5008Z" fill="#636262"/>
</g>
</svg>
