<svg width="76" height="76" viewBox="0 0 76 76" fill="none" xmlns="http://www.w3.org/2000/svg">
<path d="M27.6952 73V63.0472L27.8523 55.9741C28.0411 53.7737 29.0698 51.6998 30.7623 50.0944C30.7871 50.0707 30.812 50.0474 30.8371 50.0241C30.9024 49.9634 30.8594 49.8654 30.7623 49.8553C19.4525 48.6789 7.66897 44.6994 7.66897 27.3736C7.59523 23.1064 9.2659 18.9696 12.3537 15.725C12.4617 15.6116 12.5714 15.4991 12.6829 15.3879C12.828 15.243 12.8755 15.0467 12.809 14.8663C12.805 14.8554 12.8009 14.8444 12.7969 14.8335C12.7216 14.6274 12.6508 14.4203 12.5847 14.2125C11.4497 10.6407 11.6937 6.82523 13.2912 3.38181C13.303 3.35638 13.3149 3.33098 13.3268 3.30559C13.3865 3.17885 13.5117 3.08198 13.6725 3.05806C14.6755 2.90904 18.7283 2.70966 26.4872 7.17457C26.7287 7.31352 26.9738 7.45702 27.2224 7.60514C27.402 7.71209 27.6304 7.74487 27.8427 7.69451L27.8628 7.68973C28.2793 7.59107 28.6969 7.49746 29.1154 7.40883C36.4908 5.84768 44.1758 5.84768 51.551 7.40883C51.9482 7.49283 52.3439 7.58139 52.7392 7.67441L52.7648 7.68051C53.0145 7.73947 53.2828 7.70097 53.4942 7.5754C53.7257 7.43777 53.9539 7.30419 54.1793 7.17457C61.9199 2.71907 65.9505 2.90822 66.958 3.05713C67.1218 3.08136 67.2497 3.17998 67.3113 3.30901C67.3192 3.32562 67.3267 3.34218 67.3346 3.35879C68.9591 6.80376 69.2172 10.6305 68.0813 14.2125C68.0136 14.426 67.9408 14.6387 67.8634 14.8503C67.7934 15.0407 67.8438 15.2477 67.9964 15.4007L68.0108 15.4151C68.113 15.5174 68.2138 15.6208 68.3128 15.725C71.4007 18.9696 73.0714 23.1064 72.9976 27.3736C72.9976 44.7939 61.1303 48.6692 49.7665 49.725C49.7007 49.7308 49.6713 49.7966 49.7156 49.8374C49.7324 49.8529 49.7497 49.8685 49.7665 49.8841C50.9131 50.9484 51.8026 52.2116 52.3784 53.5956C52.9804 55.0427 53.2254 56.5877 53.0971 58.1266V73" stroke="#86FFBE" stroke-width="6" stroke-linecap="round" stroke-linejoin="round"/>
<path d="M3 57.4443C4.7227 57.6477 6.36742 58.1766 7.8097 58.9902C9.25193 59.8041 10.4539 60.8813 11.3244 62.1413C12.0641 63.2629 13.0614 64.2514 14.259 65.0498C15.4566 65.8482 16.831 66.4413 18.3034 66.7944C19.7756 67.1479 21.3169 67.2544 22.8386 67.1082C24.3603 66.9624 25.8325 66.5665 27.1708 65.9435" stroke="#86FFBE" stroke-width="6" stroke-linecap="round" stroke-linejoin="round"/>
</svg>
