<svg width="139" height="48" viewBox="0 0 139 48" fill="none" xmlns="http://www.w3.org/2000/svg">
<path fill-rule="evenodd" clip-rule="evenodd" d="M7.89909 0.0258127C8.14722 0.492104 9.3632 2.73618 10.7749 4.94587C22.8923 25.333 8.86638 39.0912 8.85335 39.074L8.73553 39.195C8.63101 41.3352 8.36957 44.3736 8.36957 44.3736H7.32381C7.32381 44.3736 7.06237 41.318 6.95785 39.195L6.8403 39.0912C6.8403 39.0912 -7.18591 25.333 4.93177 4.94587C6.34349 2.73618 7.55919 0.492104 7.8076 0.0258127C7.8135 0.0176544 7.8206 0.0111607 7.82847 0.00672409C7.83633 0.00228745 7.84479 0 7.85334 0C7.86189 0 7.87036 0.00228745 7.87822 0.00672409C7.88608 0.0111607 7.89318 0.0176544 7.89909 0.0258127ZM7.04934 37.7105C7.21929 38.0726 7.84669 38.7807 7.84669 38.7807C7.84669 38.7807 8.47409 38.0726 8.64404 37.7105V37.6758L7.88606 15.4761C7.88606 15.407 7.8076 15.407 7.8076 15.4761L7.04934 37.6758V37.7105ZM28.2506 15.4188L34.0957 34.2506L39.9404 15.3665H44.37V16.6322L43.6098 16.6497C43.3917 16.6594 43.185 16.7805 43.0334 16.9876C42.8817 17.1946 42.7971 17.4713 42.7973 17.7592L42.8369 36.7124C42.8496 37.3019 43.217 37.8047 43.6622 37.8047H44.37V39.0532H39.1803V37.8047H39.6521C40.1109 37.7876 40.478 37.3019 40.478 36.6952L40.3862 19.2852L34.1611 39.0532C34.0693 39.3479 33.8597 39.5388 33.6241 39.5388C33.3879 39.5388 33.1783 39.3479 33.0865 39.0532L26.7175 18.8343V36.6956C26.7175 37.2851 27.0846 37.7704 27.5301 37.7879L27.9889 37.8051V39.0536H23.5594V37.8051L24.3062 37.7879C24.752 37.7704 25.1188 37.2851 25.1188 36.6952L25.2499 17.7427C25.2499 17.4476 25.1712 17.1701 25.014 16.962C24.8565 16.7543 24.6469 16.6325 24.424 16.6325H23.6905V15.3669H28.2378L28.2506 15.4188ZM74.6255 36.711C74.6255 37.024 74.7045 37.2844 74.8489 37.4753C75.0066 37.6665 75.1907 37.7707 75.3878 37.736H75.9131V39.0038H71.1043V37.7356H71.6296C71.8664 37.7356 72.0635 37.6318 72.2079 37.4405C72.3526 37.2493 72.4313 36.9889 72.4313 36.6763V27.7132C72.4313 26.5321 72.2079 25.5418 71.7743 24.7776C71.3408 24.0133 70.6444 23.6312 69.7246 23.6312C68.9102 23.6312 68.2005 23.9091 67.6092 24.4821C67.0179 25.0555 66.5714 25.8026 66.2692 26.6882C65.9801 27.5918 65.8223 28.5126 65.8223 29.433V36.6938C65.8223 37.0065 65.9013 37.2672 66.0458 37.4584C66.1902 37.6493 66.3873 37.7535 66.624 37.7535H67.1493V39.0213H62.3406V37.7535H62.8661C63.1026 37.7535 63.2997 37.6493 63.4444 37.4584C63.5888 37.2672 63.6676 37.0065 63.6676 36.6938V25.7331C63.6676 25.3685 63.5888 25.1081 63.4444 24.9345C63.2997 24.7604 63.0896 24.6737 62.8398 24.6737H62.3012V23.8053L64.3903 22.2244H65.205L65.6912 24.7085C65.6912 24.7604 65.7173 24.7955 65.7569 24.7955C65.7963 24.7955 65.8356 24.7779 65.8487 24.7432C66.8868 22.7631 68.3713 21.7556 70.2505 21.7556C71.5906 21.7556 72.6678 22.2592 73.4432 23.2494C74.2315 24.2393 74.6255 25.6292 74.6255 27.4009V36.711ZM114.366 15.3665C115.969 15.3665 117.455 15.8511 118.784 16.7847C120.113 17.7356 121.182 19.1019 121.977 20.9001C122.759 22.6807 123.163 24.7905 123.163 27.2111C123.163 29.6321 122.759 31.7591 121.977 33.5225C121.195 35.286 120.113 36.6695 118.784 37.6031C117.455 38.5371 115.969 39.0213 114.366 39.0213H108.111V37.7589H108.723C108.958 37.7589 109.179 37.6207 109.375 37.3614C109.571 37.1017 109.675 36.8081 109.675 36.4965V17.8914C109.675 17.5801 109.57 17.2861 109.375 17.0265C109.166 16.75 108.958 16.6289 108.723 16.6289H108.111V15.3665H114.366ZM119.762 32.7618C120.348 31.2573 120.648 29.39 120.648 27.1767C120.648 24.9807 120.348 23.0958 119.762 21.5744C119.175 20.0699 118.393 18.9461 117.429 18.2198C116.464 17.4935 115.396 17.1307 114.249 17.1307H112.985C112.75 17.1307 112.529 17.2689 112.333 17.5282C112.125 17.8051 112.034 18.0812 112.034 18.3928V35.9435C112.034 36.2547 112.138 36.5484 112.333 36.8081C112.542 37.0845 112.75 37.2056 112.985 37.2056H114.249C115.396 37.2056 116.465 36.8424 117.429 36.1165C118.393 35.3898 119.175 34.266 119.762 32.7618ZM134.941 26.4157C136.254 26.8136 137.371 27.5571 137.949 28.4392C138.645 29.4935 138.987 30.7907 139 32.312C139 33.7299 138.711 34.9579 138.133 35.9607C137.568 36.9635 136.78 37.7245 135.795 38.2431C134.809 38.762 133.719 39.0213 132.55 39.0213H124.864V37.7589H125.482C125.718 37.7589 125.942 37.6207 126.139 37.3614C126.336 37.1017 126.441 36.8081 126.441 36.4965V17.8914C126.441 17.5801 126.336 17.2861 126.139 17.0265C125.929 16.75 125.718 16.6289 125.482 16.6289H124.917V15.3669H131.998C133.127 15.3669 134.126 15.6262 134.98 16.1276C135.834 16.6289 136.504 17.3556 136.977 18.2545C137.45 19.1534 137.686 20.2085 137.686 21.3839C137.686 23.5456 136.754 25.2227 134.941 26.4157ZM128.832 35.9607C128.832 36.2719 128.937 36.566 129.134 36.8252C129.344 37.0845 129.554 37.2056 129.79 37.2056H132.484C133.337 37.2056 134.073 36.9631 134.665 36.4965C135.268 36.0295 135.716 35.4242 136.018 34.6635C136.306 33.9201 136.464 33.1071 136.464 32.2773C136.464 30.8938 136.123 29.77 135.439 28.9051C134.756 28.0409 133.771 27.6086 132.484 27.6086H128.832V35.9607ZM128.845 18.4099V25.8276L131.906 25.828C132.983 25.828 133.797 25.4301 134.336 24.6522C134.874 23.8568 135.15 22.8021 135.15 21.4878C135.15 20.2085 134.861 19.171 134.284 18.3584C133.705 17.563 132.785 17.1479 131.538 17.1479H129.803C129.567 17.1479 129.344 17.2861 129.146 17.5454C128.936 17.8222 128.845 18.0987 128.845 18.4099ZM53.2043 21.7549C54.4168 21.7549 55.538 22.1346 56.5419 22.858C57.5459 23.5814 58.3411 24.6329 58.9277 25.9598C59.5141 27.2867 59.8141 28.8378 59.8141 30.5608C59.8141 32.2841 59.5141 33.8352 58.9277 35.1621C58.3411 36.489 57.5456 37.5401 56.5419 38.2639L56.4632 38.3215C55.4913 39.0235 54.385 39.3666 53.2043 39.3666C51.9921 39.3666 50.8709 38.9873 49.867 38.2635C48.863 37.5401 48.0678 36.489 47.4812 35.1621C46.8945 33.8352 46.5948 32.2841 46.5948 30.5608C46.5948 28.8378 46.8948 27.2867 47.4812 25.9598C48.0678 24.6329 48.863 23.5818 49.867 22.858L49.9454 22.8007C50.9176 22.0984 52.0239 21.7549 53.2043 21.7549ZM56.3332 35.6448C57.1156 34.4039 57.5065 32.6809 57.5065 30.5611C57.5065 28.4417 57.1156 26.7187 56.3332 25.4777C55.5641 24.2368 54.5083 23.5993 53.2043 23.5993C51.9009 23.5993 50.8446 24.2372 50.0757 25.4777L50.0334 25.5458C49.2795 26.7814 48.9021 28.4803 48.9021 30.5611C48.9021 32.6809 49.2933 34.4039 50.0757 35.6448L50.117 35.7107C50.8826 36.908 51.924 37.5229 53.2043 37.5229C54.5083 37.5229 55.5641 36.8854 56.3332 35.6448ZM99.4068 21.7553C100.619 21.7553 101.74 22.1349 102.744 22.8583C103.735 23.5818 104.544 24.6333 105.13 25.9601C105.717 27.287 106.016 28.8381 106.016 30.5611C106.016 32.2845 105.717 33.8355 105.13 35.1624C104.543 36.4893 103.748 37.5404 102.744 38.2642L102.666 38.3219C101.694 39.0238 100.587 39.3669 99.4068 39.3669C98.1943 39.3669 97.0731 38.9877 96.0694 38.2639C95.0655 37.5404 94.27 36.4893 93.6836 35.1624C93.097 33.8355 92.797 32.2845 92.797 30.5611C92.797 28.8381 93.097 27.287 93.6836 25.9601C94.2703 24.6333 95.0655 23.5821 96.0692 22.8583L96.1479 22.801C97.1198 22.0987 98.2264 21.7553 99.4068 21.7553ZM102.536 35.6452C103.318 34.4043 103.709 32.6813 103.709 30.5615C103.709 28.442 103.305 26.719 102.536 25.4781C101.766 24.2372 100.71 23.5997 99.4068 23.5997C98.1031 23.5997 97.047 24.2375 96.2779 25.4781L96.2356 25.5461C95.4817 26.781 95.1046 28.4635 95.1046 30.5615C95.1046 32.6813 95.4958 34.4043 96.2779 35.6452L96.3195 35.7111C97.0848 36.9083 98.1262 37.5233 99.4068 37.5233C100.71 37.5233 101.766 36.8858 102.536 35.6452ZM81.2361 22.6388C82.1027 22.05 83.061 21.756 84.1117 21.756C84.8729 21.756 85.6083 21.929 86.3172 22.2234H90.8339V23.937L88.011 23.5216L88.0064 23.5227C88.0038 23.5239 88.0008 23.5261 87.9992 23.5308C87.9984 23.533 87.9979 23.5357 87.9979 23.5392C89.2848 24.7335 89.7572 27.0707 89.7572 28.3518C89.7572 29.5462 89.5077 30.6714 89.009 31.6753C88.51 32.697 87.8142 33.4932 86.9476 34.0819C86.081 34.6703 85.083 34.9647 83.9803 34.9647C83.5863 34.9647 83.2318 34.93 82.9169 34.8433C82.5683 34.7431 82.2292 34.5923 81.9058 34.3935L80.5403 36.817C80.5308 36.8295 80.5351 36.8507 80.5378 36.8618L80.5403 36.8689L80.5457 36.875C80.5516 36.8816 80.5589 36.8856 80.5666 36.8865H85.8182C87.3545 36.8865 88.5887 37.3191 89.3765 38.1328C90.2955 39.1019 90.6894 40.1061 90.6894 41.5258C90.6894 42.8759 90.3609 44.0531 89.7175 45.023L89.6632 45.1053C89.0385 46.0343 88.2043 46.751 87.184 47.2384C86.1467 47.7405 85.0043 48.0001 83.8095 48.0001C82.0896 48.0001 80.7244 47.5328 79.7524 46.6152L79.7 46.5658C78.7501 45.654 78.2688 44.4421 78.2688 42.9798C78.2688 42.1837 78.4395 41.4044 78.7808 40.6602L78.8177 40.5781C79.105 39.9564 79.5119 39.4289 80.0152 38.9809H79.4769C79.083 38.9809 78.7414 38.704 78.5576 38.2367C78.3872 37.7865 78.4135 37.2324 78.6497 36.817L80.5273 33.4584C79.8969 32.87 79.3979 32.1602 79.0306 31.3121C78.6497 30.429 78.4659 29.4423 78.4659 28.369C78.4626 27.1906 78.7179 26.0362 79.2011 25.0451C79.6867 24.0237 80.3695 23.2272 81.2361 22.6388ZM84.1117 33.1297C84.65 33.1297 85.1881 32.9391 85.6871 32.5932C86.1861 32.2469 86.6063 31.71 86.9212 31.0002C87.2495 30.3079 87.4072 29.4251 87.4072 28.369C87.4072 27.3304 87.2362 26.4476 86.9212 25.7377C86.593 25.0279 86.1861 24.4911 85.6871 24.1448L85.6246 24.1004C85.1444 23.7673 84.64 23.6083 84.1117 23.6083C83.2318 23.6083 82.4572 24.0237 81.8008 24.8374C81.1443 25.6507 80.8161 26.8455 80.8161 28.369C80.8161 29.8925 81.1443 31.0868 81.8008 31.9005C82.4572 32.7142 83.2321 33.1297 84.1117 33.1297ZM85.6871 38.9633H82.129C81.6303 39.2921 81.2491 39.7423 80.9342 40.3654C80.619 40.9886 80.4616 41.6984 80.4616 42.4601C80.4616 43.6717 80.8028 44.6244 81.4723 45.2475C82.142 45.8707 83.061 46.1994 84.1641 46.1994C85.4246 46.1994 86.4486 45.8015 87.2101 45.0222C87.9716 44.2437 88.3522 43.2047 88.3522 41.9408C88.3522 41.0752 88.1424 40.331 87.7221 39.777C87.3021 39.223 86.6717 38.9633 85.6871 38.9633Z" fill="#636262"/>
</svg>
