<svg width="118" height="34" viewBox="0 0 118 34" fill="none" xmlns="http://www.w3.org/2000/svg">
<g id="devicon-plain:nodejs-wordmark">
<path id="Vector" d="M108.539 33.4873C108.253 33.4873 107.97 33.4125 107.72 33.2668L105.111 31.7233C104.721 31.5057 104.911 31.428 105.04 31.3837C105.56 31.2025 105.665 31.1602 106.219 30.8472C106.278 30.8147 106.353 30.8265 106.413 30.8619L108.417 32.052C108.454 32.072 108.495 32.0824 108.538 32.0824C108.58 32.0824 108.621 32.072 108.659 32.052L116.472 27.5426C116.508 27.5209 116.539 27.49 116.56 27.4528C116.581 27.4157 116.592 27.3737 116.592 27.331V18.3141C116.592 18.2708 116.581 18.2282 116.559 18.1905C116.538 18.1527 116.508 18.121 116.471 18.0985L108.661 13.593C108.624 13.5727 108.582 13.562 108.54 13.562C108.498 13.562 108.456 13.5727 108.42 13.593L100.61 18.0995C100.573 18.1219 100.543 18.1533 100.521 18.1909C100.5 18.2284 100.488 18.2708 100.487 18.3141V27.331C100.487 27.4176 100.536 27.4993 100.61 27.5397L102.75 28.777C103.912 29.3568 104.624 28.6737 104.624 27.9866V19.0829C104.624 18.9579 104.725 18.8585 104.85 18.8585H105.841C105.964 18.8585 106.067 18.9579 106.067 19.0829V27.9866C106.067 29.536 105.223 30.4249 103.754 30.4249C103.302 30.4249 102.946 30.4249 101.954 29.9366L99.9056 28.7573C99.6564 28.6121 99.4497 28.404 99.306 28.1539C99.1623 27.9038 99.0866 27.6204 99.0866 27.332V18.3151C99.0866 17.7294 99.3987 17.1831 99.9056 16.8917L107.719 12.3764C107.97 12.2393 108.252 12.1675 108.539 12.1675C108.826 12.1675 109.108 12.2393 109.36 12.3764L117.173 16.8917C117.679 17.184 117.993 17.7304 117.993 18.3151V27.332C117.992 27.6204 117.916 27.9038 117.772 28.1538C117.628 28.4038 117.422 28.6119 117.173 28.7573L109.36 33.2678C109.11 33.4124 108.827 33.4882 108.539 33.4873ZM110.953 27.2749C107.533 27.2749 106.817 25.7048 106.817 24.3887C106.817 24.3288 106.841 24.2715 106.884 24.2292C106.926 24.187 106.983 24.1633 107.043 24.1633H108.053C108.107 24.1631 108.16 24.1822 108.201 24.2172C108.242 24.2523 108.269 24.3009 108.278 24.3542C108.429 25.3829 108.885 25.9017 110.953 25.9017C112.598 25.9017 113.299 25.5296 113.299 24.6555C113.299 24.1515 113.1 23.7784 110.543 23.5274C108.405 23.3157 107.083 22.8442 107.083 21.1324C107.083 19.5564 108.412 18.6153 110.638 18.6153C113.142 18.6153 114.38 19.4845 114.536 21.3489C114.539 21.3803 114.535 21.4119 114.525 21.4417C114.515 21.4714 114.498 21.4988 114.477 21.5222C114.456 21.5446 114.43 21.5625 114.402 21.5748C114.374 21.5872 114.343 21.5937 114.312 21.594H113.297C113.246 21.5941 113.196 21.5767 113.156 21.5446C113.116 21.5126 113.089 21.4678 113.078 21.4178C112.833 20.335 112.243 19.9895 110.637 19.9895C108.841 19.9895 108.632 20.6166 108.632 21.0841C108.632 21.6521 108.878 21.8175 111.305 22.1384C113.706 22.4564 114.846 22.9052 114.846 24.5934C114.847 26.2994 113.428 27.2749 110.953 27.2749ZM92.451 21.3608C92.7591 21.1806 92.9491 20.8518 92.9491 20.4945V18.1773C92.9491 17.8209 92.7601 17.4922 92.451 17.312L84.2177 12.5319C84.0654 12.4434 83.8925 12.3966 83.7164 12.3962C83.5403 12.3959 83.3672 12.442 83.2146 12.5299L74.9301 17.313C74.7782 17.4009 74.652 17.5272 74.5642 17.6793C74.4765 17.8313 74.4302 18.0037 74.43 18.1792V27.7434C74.43 28.1027 74.623 28.4355 74.936 28.6136L83.1683 33.3042C83.4715 33.4784 83.8436 33.4794 84.1497 33.3101L89.1287 30.542C89.2062 30.499 89.2709 30.4362 89.3161 30.3599C89.3614 30.2837 89.3855 30.1968 89.3861 30.1082C89.3867 30.0195 89.3637 29.9323 89.3196 29.8555C89.2754 29.7786 89.2115 29.7149 89.1346 29.6708L80.7989 24.8868C80.7225 24.8432 80.6589 24.7802 80.6146 24.7041C80.5704 24.6281 80.547 24.5417 80.5469 24.4537V21.4553C80.5469 21.2761 80.6424 21.1117 80.797 21.0231L83.3928 19.5269C83.4686 19.4829 83.5546 19.4597 83.6423 19.4597C83.7299 19.4597 83.816 19.4829 83.8918 19.5269L86.4876 21.0231C86.5638 21.0667 86.6271 21.1296 86.6711 21.2055C86.7152 21.2814 86.7385 21.3675 86.7386 21.4553V23.8138C86.7381 23.902 86.761 23.9888 86.8049 24.0652C86.8488 24.1417 86.9122 24.2052 86.9886 24.2492C87.0651 24.2932 87.1518 24.3162 87.24 24.3158C87.3282 24.3154 87.4147 24.2916 87.4907 24.2469L92.451 21.3608ZM83.5936 20.9119C83.6229 20.8955 83.6559 20.8869 83.6895 20.8869C83.7231 20.8869 83.7562 20.8955 83.7855 20.9119L85.3753 21.8303C85.4343 21.8647 85.4708 21.9287 85.4708 21.9967V23.8325C85.4708 23.9014 85.4343 23.9644 85.3753 23.9989L83.7855 24.9163C83.7564 24.9333 83.7233 24.9422 83.6895 24.9422C83.6558 24.9422 83.6227 24.9333 83.5936 24.9163L82.0048 23.9989C81.9754 23.9822 81.951 23.9579 81.9341 23.9287C81.9171 23.8995 81.9082 23.8663 81.9083 23.8325V21.9967C81.9083 21.9287 81.9447 21.8647 82.0048 21.8303L83.5936 20.9119ZM62.0348 24.7312C62.0348 24.8198 61.9875 24.9025 61.9098 24.9478L59.0649 26.5878C59.027 26.61 58.9839 26.6217 58.9399 26.6217C58.896 26.6217 58.8528 26.61 58.8149 26.5878L55.97 24.9478C55.9321 24.9258 55.9006 24.8942 55.8786 24.8562C55.8567 24.8182 55.8451 24.7751 55.845 24.7312V21.4454C55.845 21.3568 55.8933 21.2731 55.97 21.2279L58.8149 19.5859C58.8528 19.5632 58.8962 19.5512 58.9404 19.5512C58.9846 19.5512 59.028 19.5632 59.0659 19.5859L61.9117 21.2279C61.9494 21.2503 61.9807 21.2822 62.0024 21.3203C62.0242 21.3584 62.0356 21.4015 62.0358 21.4454L62.0348 24.7312ZM62.8036 0.401439C62.7273 0.359759 62.6415 0.338559 62.5546 0.339904C62.4677 0.341249 62.3826 0.365093 62.3076 0.409114C62.2327 0.453135 62.1704 0.515829 62.1269 0.591082C62.0834 0.666335 62.0601 0.751579 62.0594 0.838501V13.5517C62.0591 13.613 62.0429 13.6732 62.0124 13.7264C61.9818 13.7795 61.938 13.8238 61.8852 13.8549C61.8318 13.8854 61.7714 13.9014 61.7099 13.9014C61.6485 13.9014 61.5881 13.8854 61.5347 13.8549L59.4597 12.6589C59.3077 12.5714 59.1354 12.5253 58.9601 12.5253C58.7847 12.5253 58.6125 12.5714 58.4605 12.6589L50.174 17.441C50.0218 17.5289 49.8954 17.6553 49.8074 17.8075C49.7195 17.9597 49.6731 18.1324 49.673 18.3082V27.8753C49.673 28.2327 49.864 28.5624 50.1731 28.7426L58.4595 33.5276C58.7686 33.7068 59.1506 33.7068 59.4606 33.5276L67.7491 28.7426C67.901 28.6544 68.0271 28.5279 68.1149 28.3757C68.2026 28.2236 68.2489 28.051 68.2491 27.8753V4.02689C68.2491 3.66464 68.0523 3.32995 67.7363 3.15277L62.8036 0.401439ZM33.6405 12.4787C33.7925 12.3908 33.9649 12.3444 34.1405 12.3444C34.3161 12.3444 34.4886 12.3908 34.6406 12.4787L42.9271 17.2598C43.2362 17.439 43.4271 17.7697 43.4271 18.1271V27.6972C43.4271 28.0545 43.2362 28.3853 42.9271 28.5644L34.6416 33.3495C34.4893 33.437 34.3167 33.4831 34.141 33.4831C33.9654 33.4831 33.7928 33.437 33.6405 33.3495L25.357 28.5644C25.205 28.4762 25.0789 28.3497 24.9912 28.1976C24.9034 28.0454 24.8571 27.8728 24.8569 27.6972V18.1261C24.8569 17.7697 25.0479 17.439 25.357 17.2598L33.6405 12.4787ZM18.5717 18.0473C18.5717 17.6871 18.3827 17.3563 18.0716 17.1781L9.7881 12.4108C9.64899 12.3302 9.49207 12.2852 9.33135 12.2799H9.24571C9.08501 12.2853 8.92813 12.3303 8.78896 12.4108L0.504465 17.1781C0.352061 17.2664 0.22554 17.3931 0.137596 17.5457C0.0496517 17.6982 0.00337791 17.8713 0.00341799 18.0473L0.0211369 30.8836C0.0211369 31.0627 0.114653 31.2291 0.271168 31.3157C0.346112 31.3612 0.432078 31.3852 0.519722 31.3852C0.607367 31.3852 0.693334 31.3612 0.768277 31.3157L5.69015 28.4965C6.00121 28.3114 6.1912 27.9856 6.1912 27.6283V21.6315C6.1912 21.2731 6.3802 20.9434 6.69028 20.7642L8.78699 19.5574C8.93854 19.4683 9.11128 19.4217 9.28706 19.4225C9.45834 19.4225 9.63356 19.4658 9.78614 19.5574L11.8809 20.7642C12.191 20.9434 12.3819 21.2731 12.3819 21.6315V27.6283C12.3819 27.9856 12.5739 28.3134 12.883 28.4965L17.8049 31.3157C17.8807 31.3591 17.9667 31.3818 18.0541 31.3816C18.1415 31.3814 18.2273 31.3583 18.303 31.3146C18.3787 31.2708 18.4416 31.208 18.4855 31.1324C18.5294 31.0568 18.5526 30.971 18.553 30.8836L18.5717 18.0473Z" fill="#636262"/>
</g>
</svg>
