<svg width="76" height="76" viewBox="0 0 76 76" fill="none" xmlns="http://www.w3.org/2000/svg">
<path d="M28.2866 7.88919C27.1055 4.93628 24.2457 3 21.0654 3H10.3682C6.29885 3 3 6.29817 3 10.3676C3 44.958 31.0412 73 65.6308 73C69.7 73 72.9981 69.7007 72.9981 65.6313L73 54.9322C73 51.7515 71.0642 48.8924 68.1114 47.7109L57.8586 43.6113C55.2065 42.5504 52.1865 43.0279 49.9916 44.8569L47.3457 47.0638C44.2557 49.6391 39.7085 49.4341 36.8643 46.5898L29.4135 39.1321C26.5691 36.2873 26.3589 31.7439 28.9341 28.6538L31.1404 26.0078C32.9693 23.8131 33.4511 20.7923 32.3902 18.1398L28.2866 7.88919Z" stroke="#86FFBE" stroke-width="5" stroke-linecap="round" stroke-linejoin="round"/>
</svg>
