<svg width="110" height="110" viewBox="0 0 110 110" fill="none" xmlns="http://www.w3.org/2000/svg">
<g id="devicon:socketio">
<g id="Group">
<path id="Vector" d="M55 0C24.679 0 0 24.679 0 55C0 85.321 24.679 110 55 110C85.321 110 110 85.321 110 55C110 24.679 85.3218 0 55 0ZM55 9.18444C80.3576 9.18444 100.816 29.6424 100.816 55C100.816 80.3585 80.3576 100.816 55 100.816C29.6424 100.816 9.18358 80.3585 9.18358 55C9.18358 29.6424 29.6424 9.18444 55 9.18444Z" fill="#636262"/>
<path id="Vector_2" fill-rule="evenodd" clip-rule="evenodd" d="M41.6166 52.2176C53.6607 42.3787 65.4417 32.1974 77.7481 22.6458C71.2934 32.5647 64.6547 42.352 58.2001 52.2701C52.6639 52.2959 47.127 52.2959 41.6166 52.2176ZM51.7979 57.7013C57.3607 57.7013 62.8968 57.7013 68.4329 57.7804C56.3105 67.5677 44.5821 77.8272 32.2499 87.3523C38.7045 77.4333 45.3432 67.6202 51.7979 57.7013Z" fill="#636262"/>
</g>
</g>
</svg>
