<svg width="75" height="75" viewBox="0 0 75 75" fill="none" xmlns="http://www.w3.org/2000/svg">
<path d="M72.6771 1.7823C71.7568 0.90806 70.6366 0.327494 69.4378 0.103505C68.2389 -0.120485 67.0072 0.0206417 65.8761 0.511596L4.23729 27.1472C2.89429 27.7274 1.75823 28.7705 0.999117 30.1202C0.24 31.4699 -0.101356 33.0537 0.0261287 34.6346C0.153614 36.2155 0.743085 37.7085 1.70633 38.8901C2.66958 40.0718 3.95481 40.8786 5.3697 41.1898L19.9524 44.3981V64.7038C19.9513 66.1575 20.3424 67.5789 21.0762 68.7879C21.81 69.997 22.8535 70.9393 24.0745 71.4956C25.2955 72.0519 26.6391 72.1971 27.9352 71.9129C29.2314 71.6286 30.4216 70.9277 31.3553 69.8989L39.1335 61.3435L51.3436 73.1625C52.5539 74.3444 54.1158 74.9981 55.7343 75C56.4379 74.9992 57.137 74.8773 57.8064 74.6387C58.9103 74.2536 59.9032 73.5568 60.6859 72.6179C61.4686 71.6789 62.0139 70.5306 62.2672 69.2876L74.8294 8.99142C75.1028 7.68815 75.0467 6.32743 74.6674 5.05668C74.288 3.78593 73.5997 2.65358 72.6771 1.7823ZM43.97 19.4503L23.0312 36.0841L11.399 33.525L43.97 19.4503ZM27.968 61.1561V50.5357L33.1038 55.507L27.968 61.1561ZM54.9551 64.9133L30.378 41.1238L65.7688 13.0093L54.9551 64.9133Z" fill="#86FFBE"/>
</svg>
