<svg width="168" height="121" viewBox="0 0 168 121" fill="none" xmlns="http://www.w3.org/2000/svg">
<path d="M140.343 2.01936C146.036 3.46133 151.209 6.70694 155.209 11.3466C157.413 13.8577 159.326 16.6525 160.907 19.6691C160.981 19.9968 150.649 27.5547 144.382 31.7705C144.155 31.938 143.252 30.8677 142.229 29.2221C141.084 27.0797 139.46 25.2882 137.506 24.0149C135.553 22.7416 133.336 22.028 131.061 21.9409C123.858 21.402 119.217 25.5087 119.251 32.3749C119.188 34.0617 119.542 35.736 120.274 37.2242C121.859 40.792 124.801 42.9327 134.043 47.2942C151.056 55.2671 158.359 60.5242 162.867 67.9948C165.414 72.7149 166.984 77.9845 167.464 83.4344C167.945 88.8843 167.325 94.3827 165.649 99.5444C163.345 105.205 159.691 110.091 155.067 113.695C150.443 117.3 145.018 119.491 139.353 120.041C133.332 120.793 127.249 120.725 121.244 119.837C112.045 118.192 103.571 113.385 97.0616 106.119C94.602 103.104 92.5197 99.7472 90.869 96.1368C91.5631 95.5746 92.2939 95.0685 93.0558 94.6223C94.1124 93.967 98.1115 91.4622 101.883 89.0813L108.731 84.7125L110.162 86.9843C112.573 90.7373 115.641 93.9344 119.191 96.3916C122.775 98.5324 126.836 99.5469 130.919 99.3219C135.002 99.0969 138.948 97.6413 142.316 95.1174C144.053 93.2738 145.139 90.8234 145.384 88.1955C145.628 85.5676 145.016 82.9298 143.653 80.7442C141.808 77.8681 138.036 75.4508 127.316 70.3903C118.91 67.3042 111.254 62.1891 104.919 55.4273C101.903 51.6845 99.675 47.2683 98.3924 42.4885C97.4439 37.0435 97.3039 31.468 97.9778 25.9747C99.2362 19.6534 102.249 13.9061 106.608 9.51172C110.967 5.1173 116.462 2.28819 122.347 1.40774C128.34 0.628031 134.406 0.834209 140.343 2.01936ZM84.5493 12.8175L84.6228 23.4044H53.6597V119.138H31.825V23.4262H0.861912V13.0286C0.779564 9.46786 0.868853 5.90486 1.12941 2.35429C1.2431 2.18682 20.0684 2.10673 42.8928 2.15042L84.4289 2.2742L84.5493 12.8175Z" fill="#636262"/>
</svg>
